<svg width="101" height="96" viewBox="0 0 101 96" fill="none" xmlns="http://www.w3.org/2000/svg">
<path d="M32.69 34.29V34.81C51.02 34.42 67.27 41.31 67.27 59.9C67.27 76.15 53.62 95.13 32.82 95.13C16.7 95.13 4.61 84.6 4.61 70.95C4.61 58.99 15.4 51.19 27.36 48.59C6.82 48.46 0.45 38.32 0.45 26.1C0.45 11.8 14.1 0.489992 32.43 0.489992C43.87 0.489992 59.73 4.12999 59.73 17.78C59.73 31.82 40.23 33.51 32.69 34.29ZM52.06 18.3C52.71 18.3 53.1 17.26 53.1 15.83C53.1 11.02 44.78 5.56 33.73 4.26C46.73 7.77 48.94 18.3 52.06 18.3ZM37.37 38.84C48.55 42.22 53.23 50.41 55.18 50.41C55.7 50.41 55.96 49.5 55.96 48.33C55.7 44.95 47.38 39.1 37.37 38.84ZM64.6984 77.19C64.6984 69.52 73.9284 64.97 81.8584 64.97C90.5684 64.97 100.058 73.16 100.058 83.82C100.058 92.14 93.2984 95.13 87.8384 95.13C77.8284 95.13 64.6984 87.85 64.6984 77.19ZM78.4784 70.82C88.8784 73.16 89.6584 79.92 92.1284 79.92C92.9084 79.92 92.9084 79.27 92.9084 78.36C92.9084 75.11 87.3184 71.47 78.4784 70.82Z" fill="#237DEA"/>
</svg>
