<svg width="101" height="91" viewBox="0 0 101 91" fill="none" xmlns="http://www.w3.org/2000/svg">
<path d="M22.5 66.86C9.76 70.37 0.4 64.26 0.4 44.11C0.4 12.78 17.3 0.299993 32.38 0.299993C46.42 0.299993 57.08 15.25 56.43 38.13C56.69 38.13 58.25 38 58.64 38C64.62 38 69.56 42.94 69.56 48.92C69.56 54.51 65.14 59.19 59.68 59.84C66.31 75.57 59.29 90.13 43.3 90.13C25.75 90.13 21.33 80.51 22.5 66.86ZM42 14.34C42.26 14.34 42.52 13.56 42.52 12.65C42.52 9.26999 37.45 5.5 30.82 4.59C38.49 7.06 40.18 14.34 42 14.34ZM30.95 41.64C33.16 41.64 34.07 40.47 34.07 39.43C34.07 37.48 31.6 35.01 29.26 35.01C27.96 35.01 26.4 35.79 26.4 37.35C26.4 39.43 28.35 41.64 30.95 41.64ZM30.43 45.93C24.84 44.11 23.8 38.78 22.63 38.78C22.24 38.78 22.11 39.3 22.11 40.08C22.11 42.42 25.75 45.28 30.43 45.93ZM55.52 40.73C60.85 42.29 62.02 46.58 63.32 46.58C63.45 46.58 63.71 46.19 63.71 45.67C63.71 43.59 60.2 41.25 55.52 40.73ZM65.6184 72.19C65.6184 64.52 74.8484 59.97 82.7784 59.97C91.4884 59.97 100.978 68.16 100.978 78.82C100.978 87.14 94.2184 90.13 88.7584 90.13C78.7484 90.13 65.6184 82.85 65.6184 72.19ZM79.3984 65.82C89.7984 68.16 90.5784 74.92 93.0484 74.92C93.8284 74.92 93.8284 74.27 93.8284 73.36C93.8284 70.11 88.2384 66.47 79.3984 65.82Z" fill="#237DEA"/>
</svg>
