<svg width="97" height="92" viewBox="0 0 97 92" fill="none" xmlns="http://www.w3.org/2000/svg">
<path d="M44.09 91.43C17.31 91.43 19.91 58.15 19 40.47C11.85 44.11 0.8 42.03 0.8 32.93C0.8 14.86 16.66 0.299993 34.47 0.299993C54.36 0.299993 61.9 41.77 61.9 56.2C61.9 75.57 59.3 91.43 44.09 91.43ZM44.09 14.34C44.35 14.34 44.61 13.56 44.61 12.65C44.61 9.26999 39.54 5.5 32.91 4.59C40.58 7.06 42.27 14.34 44.09 14.34ZM61.2551 72.19C61.2551 64.52 70.4851 59.97 78.4151 59.97C87.1251 59.97 96.6151 68.16 96.6151 78.82C96.6151 87.14 89.8551 90.13 84.3951 90.13C74.3851 90.13 61.2551 82.85 61.2551 72.19ZM75.0351 65.82C85.4351 68.16 86.2151 74.92 88.6851 74.92C89.4651 74.92 89.4651 74.27 89.4651 73.36C89.4651 70.11 83.8751 66.47 75.0351 65.82Z" fill="#237DEA"/>
</svg>
