<svg width="100" height="94" viewBox="0 0 100 94" fill="none" xmlns="http://www.w3.org/2000/svg">
<path d="M43.18 37.1L43.31 37.62C61.64 40.61 67.62 54.39 67.62 61.41C67.62 82.86 54.62 93.13 33.17 93.13C14.45 93.13 4.96 82.6 4.96 72.59C4.96 58.94 16.53 55.43 23.16 54.65C11.72 53.74 5.35 50.1 4.96 41.91C4.96 36.58 8.86 29.17 19.78 28.78L19.52 28.13C11.98 28.13 1.32 26.83 0.8 15.52C0.8 5.25 10.03 0.829993 24.98 0.829993C41.36 0.829993 55.92 6.55 56.57 19.29C56.57 30.47 49.16 35.28 43.18 37.1ZM45 14.87C45.52 14.87 45.78 14.48 45.78 13.7C45.78 10.58 38.76 6.80999 27.97 5.9C39.8 8.24 42.27 14.87 45 14.87ZM42.92 42.04C51.76 44.64 53.58 52.31 55.53 52.31C56.05 52.31 56.31 51.4 56.31 50.23C56.05 46.85 50.33 42.95 42.92 42.04ZM64.4289 75.19C64.4289 67.52 73.6589 62.97 81.5889 62.97C90.2989 62.97 99.7889 71.16 99.7889 81.82C99.7889 90.14 93.0289 93.13 87.5689 93.13C77.5589 93.13 64.4289 85.85 64.4289 75.19ZM78.2089 68.82C88.6089 71.16 89.3889 77.92 91.8589 77.92C92.6389 77.92 92.6389 77.27 92.6389 76.36C92.6389 73.11 87.0489 69.47 78.2089 68.82Z" fill="#237DEA"/>
</svg>
