<svg width="100" height="96" viewBox="0 0 100 96" fill="none" xmlns="http://www.w3.org/2000/svg">
<path d="M42.83 58.72V59.24C44.52 58.85 46.73 58.2 48.81 58.2C58.56 58.2 66.36 65.61 66.75 76.14C66.75 88.62 57.52 95.38 39.84 95.38C28.27 95.38 7.21 92.13 6.56 72.89C6.56 57.68 20.86 51.96 32.56 47.67L32.43 46.5C30.09 46.76 27.62 46.89 25.41 46.89C13.97 46.89 1.49 42.99 0.84 23.1C0.84 13.09 8.25 0.219996 26.06 0.219996C48.03 0.219996 64.28 11.92 64.28 33.89C64.28 49.88 52.19 54.3 42.83 58.72ZM49.07 16.21C49.59 16.21 49.85 15.3 49.85 14.13C49.59 10.75 41.27 4.9 31.26 4.63999C42.44 8.02 47.12 16.21 49.07 16.21ZM50.24 61.32C56.74 63.27 58.04 69.25 59.47 69.25C59.73 69.25 59.86 68.86 59.86 68.34C59.86 65.48 56.48 62.1 50.24 61.32ZM64.0637 74.19C64.0637 66.52 73.2937 61.97 81.2237 61.97C89.9337 61.97 99.4237 70.16 99.4237 80.82C99.4237 89.14 92.6637 92.13 87.2037 92.13C77.1937 92.13 64.0637 84.85 64.0637 74.19ZM77.8437 67.82C88.2437 70.16 89.0237 76.92 91.4937 76.92C92.2737 76.92 92.2737 76.27 92.2737 75.36C92.2737 72.11 86.6837 68.47 77.8437 67.82Z" fill="#237DEA"/>
</svg>
