<svg width="32" height="33" viewBox="0 0 32 33" fill="none" xmlns="http://www.w3.org/2000/svg">
<g clip-path="url(#clip0_132_438)">
<path d="M19.6673 10.9689C20.953 9.73473 22.1871 8.87761 22.5609 7.69826C22.8831 6.68003 22.8283 5.28801 22.5609 4.10866C23.1505 5.39434 23.8465 6.84114 24.5425 7.80782C25.3996 8.93239 26.3115 9.6284 27.7035 10.2729C26.1504 9.84429 24.9711 9.03872 23.4695 9.14828C22.1291 9.30939 21.0593 10.1665 19.6641 10.9689H19.6673ZM19.561 32.3003C21.1141 32.3003 22.5609 30.4797 22.5609 28.3884C22.8283 30.5312 21.649 32.0328 21.9164 31.9265C22.3997 31.8201 23.3084 31.4979 24.2751 31.4979C26.0441 31.4979 26.579 32.4098 28.8313 32.0328C31.4574 31.5495 31.9923 26.7257 31.9923 24.0996C31.9923 22.0083 30.9741 19.0632 29.044 17.4005C27.3813 15.9537 24.8648 15.2029 22.2386 15.2577C21.9712 15.2577 21.649 15.3125 21.3267 15.364C21.7005 15.1481 22.2386 14.9355 22.9346 14.8807C23.8465 14.7744 25.2385 14.987 25.8282 15.364C25.3996 14.8291 25.0774 13.7561 25.4544 12.1482C25.4544 16.1664 27.8131 16.1664 28.8313 16.1664C32.2598 16.1664 31.9923 11.7712 31.9923 9.14506C31.9923 7.10859 31.5638 3.35787 29.044 1.53407C27.3298 0.306385 24.6521 -0.0158415 22.5609 0.0904933C20.7919 0.196828 16.0777 1.16351 17.0412 2.93253C19.561 7.64993 16.1293 12.5252 15.7555 13.7046C15.3817 14.8291 15.9714 16.6529 17.1475 17.2942C15.9134 18.4187 14.6825 21.2608 15.1111 23.5099C15.5396 25.6527 16.3967 26.9932 16.9316 29.4582C17.3602 31.5495 18.0046 32.3003 19.5577 32.3003H19.561ZM26.4759 25.6012C25.1902 25.0663 24.2235 24.2092 22.7767 24.1544C21.6522 24.1544 20.5792 24.7988 19.2387 25.3885C20.4728 24.3703 21.7037 23.7258 22.1323 22.7076C22.6156 21.8505 22.6672 20.5648 22.6156 19.437C22.9894 20.7227 23.418 22.1179 23.9561 23.0814C24.6005 24.1544 25.3481 24.9019 26.4759 25.6012ZM6.10813 13.8625C7.82236 11.8808 8.57314 10.8077 8.57314 9.0935C8.57314 7.48559 8.03825 5.5039 7.23269 3.94755C8.3057 5.28801 8.94692 6.51891 9.10803 7.64671C9.32392 6.57369 10.1263 5.39434 10.7159 4.592C9.96515 5.87768 9.59137 7.75304 9.59137 9.41573C9.59137 10.9173 10.181 11.826 11.4119 13.2212C10.2326 12.6863 9.48181 11.8292 9.0017 10.811C8.35725 11.9355 7.18114 13.0633 6.10813 13.8657V13.8625ZM5.35735 24.6893C7.3938 21.4187 7.82236 18.5799 7.82236 17.1331C8.78581 17.1331 9.64292 17.0267 10.4485 16.8108C9.75248 17.1846 9.10803 17.5068 8.46681 17.668C8.14459 20.6163 7.77081 21.7409 5.35735 24.6893ZM4.33913 32.6225C7.12636 32.8384 8.73425 31.4431 8.51836 30.6923C7.98347 28.7622 7.0168 26.8321 7.39381 24.6377C7.39381 26.5678 8.08981 29.194 9.91359 30.9082C11.254 32.1939 14.2539 33.2122 15.8618 31.4979C17.6308 29.5678 14.7888 26.3004 14.5214 22.6012C12.8587 23.6195 11.1993 23.7806 9.26915 23.7806C11.2508 23.1909 13.2357 23.0298 14.3603 21.5282C15.3785 20.1362 15.7007 18.4735 15.7007 16.7593C15.7007 14.8291 14.7888 14.7228 13.5579 15.2061C15.6492 13.3856 16.8801 10.5435 17.3634 7.22137C17.6308 5.13012 16.8285 3.30954 16.2388 2.45241C15.3785 1.26984 13.4516 0.145272 9.43026 0.0357148C3.26935 -0.125398 -0.0012207 -0.125399 -0.0012207 8.34272C-0.0012207 13.1117 0.372558 15.0418 1.66145 16.1148C2.6249 16.9172 4.23279 17.0783 5.95024 17.1331C5.03835 17.1878 4.12968 17.1878 3.48524 17.1331C2.57334 17.0783 1.12656 16.8108 0.643226 16.0085C0.214669 18.7957 0.159891 20.6711 0.159891 23.4584C0.159891 26.7805 1.017 32.3003 4.33913 32.6225Z" fill="white"/>
</g>
<defs>
<clipPath id="clip0_132_438">
<rect width="32" height="32.6448" fill="white"/>
</clipPath>
</defs>
</svg>
