<svg width="164" height="46" viewBox="0 0 164 46" fill="none" xmlns="http://www.w3.org/2000/svg">
<g clip-path="url(#clip0_134_738)">
<path d="M41.5256 7.76394C43.0288 9.94955 45.2192 14.6023 44.532 19.7991C42.48 34.1583 35.0976 45.0959 20.4664 45.0959C14.5872 45.0959 8.0208 45.2343 4.74238 42.4999C1.45919 39.6271 0.5 34.7071 0.5 22.6719C0.5 1.34072 8.8416 1.34072 24.432 1.75112C34.5488 2.02312 39.3352 4.75753 41.5256 7.76871V7.76394ZM23.3392 28.9615C24.5704 31.5575 26.484 33.7479 29.3568 34.9791C26.3504 31.5623 24.8424 29.2335 24.8424 25.5447C24.8424 20.7583 25.8016 16.3823 27.7152 12.9655C26.212 15.0175 24.16 18.3007 23.6112 21.0351C23.2008 18.0287 21.5592 15.0175 18.8248 11.6007C20.8768 15.4279 22.2416 20.4911 22.2416 24.5903C22.2416 28.9663 20.4616 31.7007 16.0856 36.6255C18.6816 34.5735 21.6928 31.8391 23.3344 28.9663L23.3392 28.9615ZM43.5776 8.99513C41.1152 4.48075 53.1504 2.15674 57.6648 1.88473C63 1.61273 69.7 2.70553 74.2096 5.43993C81.8688 10.0879 81.592 19.5271 81.592 24.7191C81.592 31.4191 82.8232 44.4087 73.6608 44.5471C70.9264 44.5471 65.0472 43.7263 65.0472 32.2399C64.088 36.4775 64.9088 41.1303 65.868 42.6335C64.4984 41.5407 60.9432 40.9919 58.6192 41.2639C50.416 42.3568 53.284 44.9575 46.04 44.9575C41.8024 44.9575 38.9296 39.7607 40.1608 36.3439C41.12 33.3375 50.2824 21.0303 43.5776 8.99513ZM59.9888 24.7191C63.6824 24.4471 66.8272 26.4991 70.6544 27.5919C67.2376 25.9503 64.9136 24.1751 62.7232 21.4359C60.9432 18.9736 59.3064 15.1463 57.6648 12.0015C58.3472 15.008 58.4856 18.5632 57.6648 21.1639C56.844 24.0367 53.5608 26.2223 50.416 29.3671C53.8328 27.3152 56.7056 25.1295 59.9888 24.7191ZM84.7416 5.71194C88.0247 -0.305651 101.014 1.06394 101.014 7.62555C101.014 11.0424 101.153 16.3775 95.8176 25.1295C101.835 17.6087 102.107 15.6951 103.066 8.58473C104.026 0.925546 121.935 -4.81527 121.935 5.85033C121.935 10.0879 121.114 13.5095 118.518 17.0647C115.646 20.8919 110.726 21.7127 105.662 22.8103C110.587 22.8103 115.646 22.3999 119.75 19.8039C119.067 30.1975 126.178 38.2671 122.346 42.3663C118.108 46.8807 110.721 44.1463 107.304 40.7247C102.656 36.4871 100.876 29.7871 100.876 25.0007C100.055 30.4695 102.246 35.3943 103.749 40.3143C104.298 42.2279 100.194 45.5111 93.2168 45.1007C82.8232 44.4183 82.5512 30.3311 82.5512 21.9895C82.5512 14.8791 82.8232 9.27191 84.7368 5.71671L84.7416 5.71194ZM125.49 6.67113C129.046 2.56714 134.381 0.243138 138.757 0.10952C145.457 -0.0288704 151.885 1.75112 156.122 5.44471C161.458 9.9591 163.505 18.5727 163.505 23.7695C163.505 30.4695 162.135 43.4591 155.435 44.6903C149.828 45.6495 148.325 42.9103 143.949 42.9103C141.486 42.9103 139.162 43.5927 137.931 43.8695C137.249 44.2799 140.255 40.4527 139.573 34.9791C139.573 37.0311 138.342 41.4071 135.469 43.8695C134.786 44.5519 132.734 45.3727 130.682 45.2391C125.486 44.8287 122.069 29.2383 121.248 24.1799C120.566 19.6655 121.11 11.7343 125.486 6.6759L125.49 6.67113ZM141.491 24.3135C145.185 24.4519 147.642 26.6375 150.926 28.1407C148.053 26.2271 146.139 24.3135 144.498 21.7127C143.128 19.2503 142.035 15.6951 141.081 12.4119C141.219 15.4184 141.081 18.5679 139.85 20.7535C138.757 23.3496 135.746 24.9911 132.467 27.5919C136.022 26.0887 138.623 24.3087 141.491 24.3087V24.3135Z" fill="#A0E548"/>
</g>
<defs>
<clipPath id="clip0_134_738">
<rect width="163" height="45.2489" fill="white" transform="translate(0.5)"/>
</clipPath>
</defs>
</svg>
