<svg width="1440" height="640" viewBox="0 0 1440 640" fill="none" xmlns="http://www.w3.org/2000/svg">
<path d="M1440 557.186C1440 535.94 1373.57 471.095 1319.35 431.987C1240.58 378.345 1151.93 314.609 1019.06 317.939C871.422 317.939 782.768 398.428 743.443 461.054C701.559 529.229 677.01 642.167 881.312 638.837C947.745 638.837 984.626 624.304 999.402 597.457C1011.73 584.033 984.626 563.898 962.52 560.568C999.402 567.28 1019.18 587.415 1019.18 594.127C1051.18 597.457 1115.16 598.619 1159.49 587.415C1166.82 585.196 1198.82 578.484 1221.04 544.925C1221.04 563.95 1201.38 579.594 1179.15 590.745C1201.26 613.1 1255.48 623.141 1312.02 619.812C1383.34 615.32 1440 590.745 1440 557.186ZM1041.29 429.714C1088.06 491.23 1102.83 494.56 1208.71 520.297C1085.61 494.56 1058.62 502.434 947.861 532.611C1026.63 506.874 1070.95 493.503 1041.4 429.767L1041.29 429.714ZM317.737 525.846C394.059 595.184 517.152 623.088 568.809 623.088C654.905 623.088 709.121 588.419 716.451 549.311C726.34 497.889 696.789 447.577 605.691 443.085C529.368 474.372 430.941 465.44 362.065 441.975C430.941 465.44 539.258 449.797 576.139 438.646C684.456 407.359 657.348 295.531 460.492 295.531C285.742 295.531 379.284 373.8 263.637 420.73C315.294 392.773 354.735 318.996 179.985 318.996C93.8897 318.996 32.3433 351.392 32.3433 389.443C32.3433 396.155 37.2298 462.111 49.5624 504.601C61.8949 549.311 115.995 643.224 246.418 639.894C325.183 639.894 394.059 629.853 408.835 598.514C354.735 578.378 332.513 549.311 317.737 525.846ZM721.337 148.03C721.337 10.5169 391.5 -15.2205 165.093 7.13454C66.665 18.3385 12.4484 59.6663 7.56187 89.8959C-12.1004 213.985 -4.77068 309.007 172.423 329.143C211.747 333.635 293.072 341.457 389.057 315.719C556.477 271.009 519.479 345.896 620.466 291.144C669.68 264.297 721.337 227.409 721.337 148.03ZM480.155 91.0057C435.827 105.539 416.165 148.03 416.165 171.495C416.165 194.959 430.941 229.628 490.044 254.203C443.273 251.983 403.949 207.273 396.503 193.85C327.627 193.85 231.642 231.848 243.858 278.831C214.307 222.917 325.067 179.316 386.613 179.316C381.727 172.604 384.17 165.893 386.613 161.453C329.953 155.851 211.863 129.057 256.191 66.431C241.415 132.386 376.84 146.92 391.616 150.302C398.946 132.439 421.168 102.21 480.271 91.0586L480.155 91.0057ZM900.974 233.011C900.974 233.011 982.183 268.789 947.744 314.609C1016.62 329.143 1088.06 317.939 1112.61 303.405C1161.82 272.119 1211.03 249.764 1294.68 249.764C1215.92 257.585 1169.15 279.94 1129.82 310.117C1154.49 338.074 1218.48 352.608 1287.36 349.225C1371.01 345.896 1430.11 307.845 1422.78 270.956C1415.45 256.423 1363.68 181.536 1324.35 146.867C1294.8 112.198 1196.37 2.64239 1014.29 12.6837C807.549 21.6151 657.464 251.931 667.237 291.039C677.126 325.708 743.559 345.843 809.992 345.843C940.415 345.843 969.966 284.327 901.09 232.905L900.974 233.011ZM1166.82 229.681C1112.72 218.477 1075.72 198.395 1053.62 198.395C1033.96 198.395 1014.29 208.436 955.191 218.53C1021.62 201.777 1068.39 170.438 1068.39 133.549C1075.72 146.973 1068.39 174.93 1083.17 188.353C1097.95 201.777 1127.5 215.201 1166.82 229.734V229.681Z" fill="#BCF8F0" fill-opacity="0.2"/>
</svg>
