<svg width="1440" height="1320" viewBox="0 0 1440 1320" fill="none" xmlns="http://www.w3.org/2000/svg">
<path fill-rule="evenodd" clip-rule="evenodd" d="M1307.01 265.258C1304.25 261.113 1301.48 256.942 1298.7 252.751C1217.76 130.955 1125.97 -7.18728 990.643 0.29081C838.119 0.29081 745.489 179.923 702.723 323.922C692.093 43.5926 378.347 -8.6443 161.644 38.22C65.8506 62.1147 13.1983 150.367 8.32938 214.725C-8.20422 443.38 -5.04295 625.758 107.35 698.832C42.6303 717.214 0 769.978 0 829.763C0 842.896 5.2352 971.954 18.4478 1055.1C31.6605 1142.58 89.6216 1326.35 229.351 1319.83C313.738 1319.83 387.529 1300.18 403.359 1238.86C345.398 1199.46 321.591 1142.58 305.76 1096.67H305.885C387.654 1232.34 519.531 1286.95 574.874 1286.95C655.252 1286.95 709.695 1235.43 727.564 1171.55C743.794 1223.65 798.249 1255.33 853.892 1257.75C977.279 1263.13 1010.2 1150.44 949.302 1052.3C952.899 1055.79 1022.16 1123.97 986.74 1205.45C1050.84 1235.22 1119.22 1217.4 1143.72 1191.48C1192.81 1135.53 1241.17 1096.13 1320.31 1099.58C1245.17 1110.82 1199.11 1150.33 1159.47 1204.63C1180.44 1257.46 1239.8 1287.03 1305.35 1283.6C1384.76 1280.88 1443.74 1212.9 1439.67 1144.22C1433.91 1116.99 1391.09 975.973 1356.58 910.095C1331.42 844.723 1247.15 637.529 1074.08 648.73C911.662 655.373 773.624 944.442 734.305 1085.35C729.016 1007.39 693.201 941.824 614.387 934.726C532.619 995.945 427.167 978.469 353.376 932.554C427.167 978.469 543.214 947.859 582.727 926.039C672.54 878.579 675.447 736.843 574.402 675.186C582.965 668.209 592.909 658.107 604.829 643.928C627.991 616.24 651.708 583.544 670.028 538.015C671.238 651.685 711.973 750.627 845.391 745.833C915.382 745.833 954.361 712.067 969.805 649.693C981.695 621.085 958.896 579.461 936.955 566.814C971.889 584.495 990.643 627.224 990.643 641.958C1024.35 649.693 1091.77 652.272 1138.35 626.364C1138.95 625.962 1139.69 625.499 1140.58 624.954C1151.27 618.346 1181.68 599.557 1203.19 527.646C1203.19 571.726 1182.47 608.192 1159.19 634.1C1182.47 686.037 1239.59 709.489 1299.17 701.631C1374.43 691.317 1434 634.1 1434 556.255C1434 506.896 1364.01 356.24 1307.01 265.258ZM917.316 497.647L918.785 496.592C999.635 438.485 1044.64 406.141 1013.93 260.101C1063.01 402.325 1078.65 410.691 1188.98 469.713L1190.32 470.429C1061.58 411.192 1032.5 428.667 917.921 497.512L915.382 499.038L917.316 497.647ZM278.041 732.594C315.358 779.517 284.499 854.829 247.924 890.982C300.448 852.054 312.695 802.105 323.639 757.475L323.639 757.474L323.64 757.473C327.027 743.658 330.29 730.352 334.584 718.041C314.673 725.591 295.724 730.137 278.041 732.594ZM238.301 617.667C226.412 517.467 319.827 436.428 386.86 436.428C393.993 465.056 432.379 560.41 477.897 565.256C420.376 512.733 405.996 438.795 405.996 388.751C405.996 338.707 425.132 248.088 468.273 217.092C410.751 240.874 389.238 305.345 382.104 343.441C380.63 342.713 377.923 341.735 374.267 340.413C342.244 328.836 237.397 290.929 250.303 164.682C207.163 298.131 322.205 355.389 377.235 367.336C374.857 376.804 372.479 391.118 377.235 405.432C317.336 405.432 209.54 498.419 238.301 617.667ZM1063.26 1004.53C1077.51 998.166 1087 993.928 1096.29 994.332C1106.91 994.795 1120.64 1004.9 1138.12 1017.75C1155.25 1030.35 1175.97 1045.6 1200.86 1056.98C1164.83 1028.43 1137.96 1002.33 1125.07 976.843C1117.41 961.719 1117.58 937.432 1117.73 914.941C1117.83 899.531 1117.93 884.964 1115.51 874.764C1112.53 943.129 1065.75 999.184 1001.55 1027.49C1029.94 1019.4 1048.99 1010.9 1063.26 1004.53Z" fill="#4BF4AC"/>
</svg>
