<svg width="1586" height="1411" viewBox="0 0 1586 1411" fill="none" xmlns="http://www.w3.org/2000/svg">
<path fill-rule="evenodd" clip-rule="evenodd" d="M655.93 1387.66C730.649 1371.34 783.705 1326.79 813.599 1278.88C941.02 1410.55 1197.86 1430.87 1390.93 1394.3C1507 1368.96 1570.79 1275.48 1576.69 1207.11C1593.88 999.033 1593.5 827.09 1507.02 733.509C1525.3 710.274 1539.17 682.712 1548.14 650.165C1560.73 604.206 1583.13 509.249 1515.91 395.759C1456.16 294.696 1479.12 257.242 1496.57 228.766C1513.3 201.466 1524.97 182.418 1453.87 123.486C1425.02 99.7626 1391.63 75.2964 1347.99 54.5138L1347.7 54.3735C1306.31 34.8494 1255.65 18.4764 1190.7 9.00857C1190.56 9.00667 1190.42 9.00477 1190.28 8.86641C1155.19 3.75624 1116.1 0.639587 1071.87 0.0469866C932.25 -1.82363 834.761 52.2991 770.551 134.738C656.584 1.04166 426.319 -19.6129 253.278 17.4496C149.356 43.1099 92.2354 137.763 86.9533 206.997C70.4856 432.438 72.0278 615.99 166.752 705.271C154.084 712.25 138.77 724.755 118.948 745.389C95.4878 770.013 71.3415 798.463 51.0366 835.519L50.8994 835.758C31.8293 870.902 16.0519 913.815 7.40855 968.682C7.40855 968.747 7.40855 968.812 7.38645 968.877C7.36796 968.932 7.3339 968.986 7.27134 969.041C2.60673 998.685 3.44258e-05 1031.68 3.09922e-05 1068.97C2.35734e-06 1380 388.948 1438.22 655.93 1387.66ZM1413.82 564.847L1413.86 564.772C1414.05 564.753 1414.24 564.735 1414.42 564.716C1414.22 564.76 1414.02 564.803 1413.82 564.847ZM563.113 773.594L563.189 773.633C563.142 773.462 563.096 773.292 563.049 773.121L563.076 773.325C563.089 773.415 563.101 773.505 563.113 773.594ZM336.315 639.195L336.383 639.233C336.402 639.393 336.421 639.552 336.44 639.712C336.398 639.539 336.357 639.367 336.315 639.195Z" fill="#72FA93"/>
</svg>
