<svg width="360" height="105" viewBox="0 0 360 105" fill="none" xmlns="http://www.w3.org/2000/svg">
<path d="M0 16C0 7.16344 7.16344 0 16 0H341.781C351.438 0 358.894 8.49018 357.647 18.0664L348.14 91.0664C347.101 99.0368 340.311 105 332.273 105H16C7.16344 105 0 97.8366 0 89V16Z" fill="#237DEA"/>
<path d="M115.188 19.5312H125.156V80H115.188V53.1875H109.75V80H99.75V19.5312H109.75V44.6875H115.188V19.5312ZM144.499 19C148.811 19 152.082 20.1771 154.311 22.5312C156.561 24.8854 157.686 28.3229 157.686 32.8438V66.6875C157.686 71.25 156.561 74.7083 154.311 77.0625C152.082 79.3958 148.811 80.5625 144.499 80.5625C140.27 80.5625 137.04 79.3958 134.811 77.0625C132.582 74.7083 131.467 71.25 131.467 66.6875V32.8438C131.467 28.3229 132.582 24.8854 134.811 22.5312C137.04 20.1771 140.27 19 144.499 19ZM147.53 68.6875V30.8438C147.53 29.7812 147.259 28.9271 146.717 28.2812C146.197 27.6354 145.488 27.3125 144.592 27.3125C143.697 27.3125 142.978 27.6354 142.436 28.2812C141.895 28.9271 141.624 29.7812 141.624 30.8438V68.6875C141.624 69.75 141.895 70.6042 142.436 71.25C142.978 71.875 143.697 72.1875 144.592 72.1875C145.488 72.1875 146.197 71.875 146.717 71.25C147.259 70.6042 147.53 69.75 147.53 68.6875ZM192.935 60.6875H193.654L194.154 49.8438L196.404 19.5312H207.029L200.56 80H187.935L184.935 49.9688L184.123 37.625H183.529L182.841 49.9688L179.81 80H167.029L160.685 19.5312H171.435L173.623 49.8438L174.185 60.6875H174.841L175.591 49.8438L178.81 19.5312H188.966L192.185 49.8438L192.935 60.6875ZM222.308 19.5312H232.308V80H222.308V19.5312ZM261.619 19.5312V28.0312H253.994V80H244.087V28.0312H236.462V19.5312H261.619Z" fill="white"/>
</svg>
