<svg width="360" height="105" viewBox="0 0 360 105" fill="none" xmlns="http://www.w3.org/2000/svg">
<path d="M0 16C0 7.16344 7.16344 0 16 0H341.781C351.438 0 358.894 8.49018 357.647 18.0664L348.14 91.0664C347.101 99.0368 340.311 105 332.273 105H16C7.16344 105 0 97.8366 0 89V16Z" fill="#A0E548"/>
<path d="M65.1875 60.6875H65.9062L66.4062 49.8438L68.6562 19.5312H79.2812L72.8125 80H60.1875L57.1875 49.9688L56.375 37.625H55.7812L55.0938 49.9688L52.0625 80H39.2812L32.9375 19.5312H43.6875L45.875 49.8438L46.4375 60.6875H47.0938L47.8438 49.8438L51.0625 19.5312H61.2188L64.4375 49.8438L65.1875 60.6875ZM93.155 71.5H103.78V80H83.155V19.5312H103.624V28.0312H93.155V44.8125H102.874V53.0625H93.155V71.5ZM119.435 71.5H129.029V80H109.435V19.5312H119.435V71.5ZM157.934 51.8438V68.4062C157.934 72.4271 156.84 75.4583 154.652 77.5C152.486 79.5417 149.33 80.5625 145.184 80.5625C140.955 80.5625 137.725 79.3958 135.496 77.0625C133.267 74.7083 132.152 71.25 132.152 66.6875V32.8438C132.152 28.3229 133.267 24.8854 135.496 22.5312C137.746 20.1771 140.975 19 145.184 19C153.684 19 157.934 23.0521 157.934 31.1562V45.875H148.09V30.8438C148.09 29.7812 147.83 28.9271 147.309 28.2812C146.788 27.6354 146.111 27.3125 145.277 27.3125C144.382 27.3125 143.663 27.6354 143.121 28.2812C142.58 28.9271 142.309 29.7812 142.309 30.8438V68.6875C142.309 69.75 142.58 70.6042 143.121 71.25C143.663 71.875 144.382 72.1875 145.277 72.1875C146.132 72.1875 146.809 71.875 147.309 71.25C147.83 70.6042 148.09 69.75 148.09 68.6875V51.8438H157.934ZM176.589 19C180.901 19 184.172 20.1771 186.401 22.5312C188.651 24.8854 189.776 28.3229 189.776 32.8438V66.6875C189.776 71.25 188.651 74.7083 186.401 77.0625C184.172 79.3958 180.901 80.5625 176.589 80.5625C172.36 80.5625 169.13 79.3958 166.901 77.0625C164.672 74.7083 163.557 71.25 163.557 66.6875V32.8438C163.557 28.3229 164.672 24.8854 166.901 22.5312C169.13 20.1771 172.36 19 176.589 19ZM179.62 68.6875V30.8438C179.62 29.7812 179.349 28.9271 178.807 28.2812C178.287 27.6354 177.578 27.3125 176.682 27.3125C175.787 27.3125 175.068 27.6354 174.526 28.2812C173.985 28.9271 173.714 29.7812 173.714 30.8438V68.6875C173.714 69.75 173.985 70.6042 174.526 71.25C175.068 71.875 175.787 72.1875 176.682 72.1875C177.578 72.1875 178.287 71.875 178.807 71.25C179.349 70.6042 179.62 69.75 179.62 68.6875ZM215.087 61L215.994 48.625L219.119 19.5312H233.4V80H223.994L224.056 58.6875L224.494 37.75H223.869L219.462 80H209.775L205.556 37.6875H204.931L205.431 58.6875V80H196.087V19.5312H210.431L213.494 48.625L214.462 61H215.087ZM250.117 71.5H260.742V80H240.117V19.5312H260.586V28.0312H250.117V44.8125H259.836V53.0625H250.117V71.5ZM300.396 19.5312V28.0312H292.771V80H282.865V28.0312H275.24V19.5312H300.396ZM316.739 19C321.051 19 324.322 20.1771 326.551 22.5312C328.801 24.8854 329.926 28.3229 329.926 32.8438V66.6875C329.926 71.25 328.801 74.7083 326.551 77.0625C324.322 79.3958 321.051 80.5625 316.739 80.5625C312.51 80.5625 309.28 79.3958 307.051 77.0625C304.822 74.7083 303.707 71.25 303.707 66.6875V32.8438C303.707 28.3229 304.822 24.8854 307.051 22.5312C309.28 20.1771 312.51 19 316.739 19ZM319.77 68.6875V30.8438C319.77 29.7812 319.499 28.9271 318.957 28.2812C318.437 27.6354 317.728 27.3125 316.832 27.3125C315.937 27.3125 315.218 27.6354 314.676 28.2812C314.135 28.9271 313.864 29.7812 313.864 30.8438V68.6875C313.864 69.75 314.135 70.6042 314.676 71.25C315.218 71.875 315.937 72.1875 316.832 72.1875C317.728 72.1875 318.437 71.875 318.957 71.25C319.499 70.6042 319.77 69.75 319.77 68.6875Z" fill="#237DEA"/>
</svg>
