<svg width="360" height="105" viewBox="0 0 360 105" fill="none" xmlns="http://www.w3.org/2000/svg">
<path d="M0 16C0 7.16344 7.16344 0 16 0H341.781C351.438 0 358.894 8.49018 357.647 18.0664L348.14 91.0664C347.101 99.0368 340.311 105 332.273 105H16C7.16344 105 0 97.8366 0 89V16Z" fill="#933FFA"/>
<path d="M59.1875 60.6875H59.9062L60.4062 49.8438L62.6562 19.5312H73.2812L66.8125 80H54.1875L51.1875 49.9688L50.375 37.625H49.7812L49.0938 49.9688L46.0625 80H33.2812L26.9375 19.5312H37.6875L39.875 49.8438L40.4375 60.6875H41.0938L41.8438 49.8438L45.0625 19.5312H55.2188L58.4375 49.8438L59.1875 60.6875ZM92.5925 19.5312H102.561V80H92.5925V53.1875H87.155V80H77.155V19.5312H87.155V44.6875H92.5925V19.5312ZM122.31 46.3438L123.341 38.5938L126.029 19.5312H136.841L126.779 63.8125V80H116.81V63.75L106.685 19.5312H117.747L120.56 38.5938L121.591 46.3438H122.31ZM177.589 51.8438V68.4062C177.589 72.4271 176.495 75.4583 174.308 77.5C172.141 79.5417 168.985 80.5625 164.839 80.5625C160.61 80.5625 157.38 79.3958 155.151 77.0625C152.922 74.7083 151.808 71.25 151.808 66.6875V32.8438C151.808 28.3229 152.922 24.8854 155.151 22.5312C157.401 20.1771 160.63 19 164.839 19C173.339 19 177.589 23.0521 177.589 31.1562V45.875H167.745V30.8438C167.745 29.7812 167.485 28.9271 166.964 28.2812C166.443 27.6354 165.766 27.3125 164.933 27.3125C164.037 27.3125 163.318 27.6354 162.776 28.2812C162.235 28.9271 161.964 29.7812 161.964 30.8438V68.6875C161.964 69.75 162.235 70.6042 162.776 71.25C163.318 71.875 164.037 72.1875 164.933 72.1875C165.787 72.1875 166.464 71.875 166.964 71.25C167.485 70.6042 167.745 69.75 167.745 68.6875V51.8438H177.589ZM199.15 19.5312H209.119V80H199.15V53.1875H193.712V80H183.712V19.5312H193.712V44.6875H199.15V19.5312ZM228.461 19C232.774 19 236.045 20.1771 238.274 22.5312C240.524 24.8854 241.649 28.3229 241.649 32.8438V66.6875C241.649 71.25 240.524 74.7083 238.274 77.0625C236.045 79.3958 232.774 80.5625 228.461 80.5625C224.232 80.5625 221.003 79.3958 218.774 77.0625C216.545 74.7083 215.43 71.25 215.43 66.6875V32.8438C215.43 28.3229 216.545 24.8854 218.774 22.5312C221.003 20.1771 224.232 19 228.461 19ZM231.492 68.6875V30.8438C231.492 29.7812 231.222 28.9271 230.68 28.2812C230.159 27.6354 229.451 27.3125 228.555 27.3125C227.659 27.3125 226.94 27.6354 226.399 28.2812C225.857 28.9271 225.586 29.7812 225.586 30.8438V68.6875C225.586 69.75 225.857 70.6042 226.399 71.25C226.94 71.875 227.659 72.1875 228.555 72.1875C229.451 72.1875 230.159 71.875 230.68 71.25C231.222 70.6042 231.492 69.75 231.492 68.6875ZM260.491 19C264.804 19 268.075 20.1771 270.304 22.5312C272.554 24.8854 273.679 28.3229 273.679 32.8438V66.6875C273.679 71.25 272.554 74.7083 270.304 77.0625C268.075 79.3958 264.804 80.5625 260.491 80.5625C256.262 80.5625 253.033 79.3958 250.804 77.0625C248.575 74.7083 247.46 71.25 247.46 66.6875V32.8438C247.46 28.3229 248.575 24.8854 250.804 22.5312C253.033 20.1771 256.262 19 260.491 19ZM263.523 68.6875V30.8438C263.523 29.7812 263.252 28.9271 262.71 28.2812C262.189 27.6354 261.481 27.3125 260.585 27.3125C259.689 27.3125 258.97 27.6354 258.429 28.2812C257.887 28.9271 257.616 29.7812 257.616 30.8438V68.6875C257.616 69.75 257.887 70.6042 258.429 71.25C258.97 71.875 259.689 72.1875 260.585 72.1875C261.481 72.1875 262.189 71.875 262.71 71.25C263.252 70.6042 263.523 69.75 263.523 68.6875ZM305.084 40.0625H295.209V30.2188C295.209 28.2604 294.25 27.2708 292.334 27.25C291.438 27.25 290.74 27.5 290.24 28C289.761 28.5 289.521 29.125 289.521 29.875V39.375C289.521 40.3958 289.719 41.1875 290.115 41.75C290.532 42.2917 291.23 42.7708 292.209 43.1875L297.084 44.8125C299.98 45.7917 302.125 47.1042 303.521 48.75C304.938 50.375 305.646 52.8125 305.646 56.0625V68.4062C305.646 72.1562 304.49 75.125 302.178 77.3125C299.886 79.4792 296.719 80.5625 292.678 80.5625C288.532 80.5625 285.334 79.6146 283.084 77.7188C280.855 75.8229 279.74 73.1667 279.74 69.75V57.2188H289.646V69.125C289.646 70.0208 289.896 70.7708 290.396 71.375C290.917 71.9583 291.657 72.25 292.615 72.25C293.511 72.25 294.209 71.9792 294.709 71.4375C295.23 70.875 295.49 70.1667 295.49 69.3125V57.7188C295.49 55.7604 294.438 54.3333 292.334 53.4375L287.865 52.0312C284.928 51.1354 282.792 49.8125 281.459 48.0625C280.146 46.3125 279.49 43.8125 279.49 40.5625V30.4062C279.49 27.0312 280.594 24.2917 282.803 22.1875C285.032 20.0625 288.25 19 292.459 19C296.521 19 299.636 19.9375 301.803 21.8125C303.99 23.6875 305.084 26.25 305.084 29.5V40.0625ZM321.582 71.5H332.207V80H311.582V19.5312H332.051V28.0312H321.582V44.8125H331.301V53.0625H321.582V71.5Z" fill="#A0E548"/>
</svg>
