<svg width="360" height="105" viewBox="0 0 360 105" fill="none" xmlns="http://www.w3.org/2000/svg">
<path d="M9.33011 13.6887C10.4776 5.82825 17.2185 0 25.1623 0H343.631C352.468 0 359.631 7.16344 359.631 16V89C359.631 97.8366 352.468 105 343.631 105H14.5053C4.7488 105 -2.7362 96.3429 -1.32682 86.6887L9.33011 13.6887Z" fill="#237DEA"/>
<path d="M131.188 19.5312C135.021 19.5312 138.01 20.6042 140.156 22.75C142.323 24.8958 143.406 28.0833 143.406 32.3125V67.3125C143.406 71.4583 142.312 74.6146 140.125 76.7812C137.958 78.9271 134.979 80 131.188 80H117.75V19.5312H131.188ZM133.312 67.9688V31.5625C133.312 30.4583 133.042 29.5938 132.5 28.9688C131.979 28.3438 131.271 28.0312 130.375 28.0312H127.75V71.5H130.281C131.219 71.5 131.958 71.1875 132.5 70.5625C133.042 69.9375 133.312 69.0729 133.312 67.9688ZM166.03 80L165.03 67.0625L157.968 67L156.968 80H146.655L153.811 19.5312H169.436L176.468 80H166.03ZM158.686 58.8125H164.374L162.78 37.75L161.874 28.8125H161.186L160.343 37.75L158.686 58.8125ZM208.529 80H197.341L190.998 52.5312H190.31V80H180.373V19.5312H190.373L190.31 46.0312H190.935L197.216 19.5312H207.716L199.966 48.625L208.529 80ZM228.84 80L227.84 67.0625L220.777 67L219.777 80H209.465L216.621 19.5312H232.246L239.277 80H228.84ZM221.496 58.8125H227.184L225.59 37.75L224.684 28.8125H223.996L223.152 37.75L221.496 58.8125Z" fill="#A0E548"/>
</svg>
