<svg width="360" height="105" viewBox="0 0 360 105" fill="none" xmlns="http://www.w3.org/2000/svg">
<path d="M9.33011 13.6887C10.4776 5.82825 17.2185 0 25.1623 0H343.631C352.468 0 359.631 7.16344 359.631 16V89C359.631 97.8366 352.468 105 343.631 105H14.5053C4.7488 105 -2.7362 96.3429 -1.32682 86.6887L9.33011 13.6887Z" fill="#A0E548"/>
<path d="M88.1875 60.6875H88.9062L89.4062 49.8438L91.6562 19.5312H102.281L95.8125 80H83.1875L80.1875 49.9688L79.375 37.625H78.7812L78.0938 49.9688L75.0625 80H62.2812L55.9375 19.5312H66.6875L68.875 49.8438L69.4375 60.6875H70.0938L70.8438 49.8438L74.0625 19.5312H84.2188L87.4375 49.8438L88.1875 60.6875ZM118.186 19C122.499 19 125.77 20.1771 127.999 22.5312C130.249 24.8854 131.374 28.3229 131.374 32.8438V66.6875C131.374 71.25 130.249 74.7083 127.999 77.0625C125.77 79.3958 122.499 80.5625 118.186 80.5625C113.957 80.5625 110.728 79.3958 108.499 77.0625C106.27 74.7083 105.155 71.25 105.155 66.6875V32.8438C105.155 28.3229 106.27 24.8854 108.499 22.5312C110.728 20.1771 113.957 19 118.186 19ZM121.217 68.6875V30.8438C121.217 29.7812 120.947 28.9271 120.405 28.2812C119.884 27.6354 119.176 27.3125 118.28 27.3125C117.384 27.3125 116.665 27.6354 116.124 28.2812C115.582 28.9271 115.311 29.7812 115.311 30.8438V68.6875C115.311 69.75 115.582 70.6042 116.124 71.25C116.665 71.875 117.384 72.1875 118.28 72.1875C119.176 72.1875 119.884 71.875 120.405 71.25C120.947 70.6042 121.217 69.75 121.217 68.6875ZM164.372 80H154.185L151.56 58.25H147.685V80H137.685V19.5312H151.247C155.164 19.5312 158.164 20.5417 160.247 22.5625C162.352 24.5833 163.404 27.5208 163.404 31.375V45.25C163.404 48.8333 162.362 51.7083 160.279 53.875L164.372 80ZM147.747 50.25H149.591C152.029 50.25 153.247 48.7292 153.247 45.6875V32.3125C153.247 29.4583 152.029 28.0312 149.591 28.0312H147.747V50.25ZM197.871 80H186.684L180.34 52.5312H179.652V80H169.715V19.5312H179.715L179.652 46.0312H180.277L186.559 19.5312H197.059L189.309 48.625L197.871 80ZM226.089 40.0625H216.214V30.2188C216.214 28.2604 215.255 27.2708 213.339 27.25C212.443 27.25 211.745 27.5 211.245 28C210.766 28.5 210.526 29.125 210.526 29.875V39.375C210.526 40.3958 210.724 41.1875 211.12 41.75C211.537 42.2917 212.235 42.7708 213.214 43.1875L218.089 44.8125C220.985 45.7917 223.13 47.1042 224.526 48.75C225.943 50.375 226.651 52.8125 226.651 56.0625V68.4062C226.651 72.1562 225.495 75.125 223.182 77.3125C220.891 79.4792 217.724 80.5625 213.682 80.5625C209.537 80.5625 206.339 79.6146 204.089 77.7188C201.86 75.8229 200.745 73.1667 200.745 69.75V57.2188H210.651V69.125C210.651 70.0208 210.901 70.7708 211.401 71.375C211.922 71.9583 212.662 72.25 213.62 72.25C214.516 72.25 215.214 71.9792 215.714 71.4375C216.235 70.875 216.495 70.1667 216.495 69.3125V57.7188C216.495 55.7604 215.443 54.3333 213.339 53.4375L208.87 52.0312C205.932 51.1354 203.797 49.8125 202.464 48.0625C201.151 46.3125 200.495 43.8125 200.495 40.5625V30.4062C200.495 27.0312 201.599 24.2917 203.807 22.1875C206.037 20.0625 209.255 19 213.464 19C217.526 19 220.641 19.9375 222.807 21.8125C224.995 23.6875 226.089 26.25 226.089 29.5V40.0625ZM250.024 65.7188C250.149 63.0729 250.482 60.5938 251.024 58.2812C251.586 55.9479 252.232 54 252.961 52.4375C253.69 50.8542 254.399 49.3958 255.086 48.0625C255.795 46.7083 256.388 45.3542 256.867 44C257.367 42.6458 257.617 41.3542 257.617 40.125V29.0625C257.617 28.2083 257.357 27.5521 256.836 27.0938C256.336 26.6146 255.701 26.375 254.93 26.375C254.076 26.375 253.357 26.625 252.774 27.125C252.211 27.6042 251.93 28.3125 251.93 29.25V41.4688H242.586V29.3125C242.586 26.1042 243.659 23.5833 245.805 21.75C247.972 19.9167 251.055 19 255.055 19C258.93 19 261.992 19.8125 264.242 21.4375C266.492 23.0625 267.617 25.3854 267.617 28.4062V39.625C267.617 41.5417 267.336 43.3958 266.774 45.1875C266.232 46.9792 265.545 48.6042 264.711 50.0625C263.878 51.5 263.034 52.9688 262.18 54.4688C261.326 55.9688 260.565 57.6875 259.899 59.625C259.232 61.5625 258.836 63.5938 258.711 65.7188H250.024ZM259.305 69.25V80H249.492V69.25H259.305ZM279.116 65.7188C279.241 63.0729 279.575 60.5938 280.116 58.2812C280.679 55.9479 281.325 54 282.054 52.4375C282.783 50.8542 283.491 49.3958 284.179 48.0625C284.887 46.7083 285.481 45.3542 285.96 44C286.46 42.6458 286.71 41.3542 286.71 40.125V29.0625C286.71 28.2083 286.45 27.5521 285.929 27.0938C285.429 26.6146 284.793 26.375 284.023 26.375C283.168 26.375 282.45 26.625 281.866 27.125C281.304 27.6042 281.023 28.3125 281.023 29.25V41.4688H271.679V29.3125C271.679 26.1042 272.752 23.5833 274.898 21.75C277.064 19.9167 280.148 19 284.148 19C288.023 19 291.085 19.8125 293.335 21.4375C295.585 23.0625 296.71 25.3854 296.71 28.4062V39.625C296.71 41.5417 296.429 43.3958 295.866 45.1875C295.325 46.9792 294.637 48.6042 293.804 50.0625C292.97 51.5 292.127 52.9688 291.273 54.4688C290.418 55.9688 289.658 57.6875 288.991 59.625C288.325 61.5625 287.929 63.5938 287.804 65.7188H279.116ZM288.398 69.25V80H278.585V69.25H288.398Z" fill="#237DEA"/>
</svg>
