<svg width="360" height="76" viewBox="0 0 360 76" fill="none" xmlns="http://www.w3.org/2000/svg">
<path d="M0 16C0 7.16344 7.16344 0 16 0H344.068C352.878 0 360.03 7.12184 360.068 15.9316L360.256 59.9316C360.294 68.7948 353.12 76 344.256 76H16C7.16342 76 0 68.8366 0 60V16Z" fill="#237DEA"/>
<path d="M85.9688 49.6875H92.6094V55H79.7188V17.207H92.5117V22.5195H85.9688V33.0078H92.043V38.1641H85.9688V49.6875ZM102.941 43.6719L102.628 45.6445L100.909 55H94.6594L99.1516 37.7539L95.0305 22.1289H101.495L102.862 30.6445L103.195 32.4414H103.585L103.898 30.6445L105.265 22.1289H111.378L107.218 37.4414L111.749 55H105.304L103.624 45.6445L103.312 43.6719H102.941ZM125.127 55.3125C124.008 55.3125 123.096 55.026 122.393 54.4531C121.703 53.8802 121.052 53.0729 120.44 52.0312V59.0039H114.366V22.1289H119.795L120.284 25.2734C121.455 22.9297 123.07 21.7708 125.127 21.7969C126.547 21.7969 127.679 22.2917 128.526 23.2812C129.372 24.2708 129.795 25.8203 129.795 27.9297V49.1602C129.795 51.2695 129.372 52.8255 128.526 53.8281C127.679 54.8177 126.547 55.3125 125.127 55.3125ZM122.08 50.3906C123.148 50.3906 123.682 49.6745 123.682 48.2422V28.8867C123.682 27.4154 123.148 26.6797 122.08 26.6797C120.987 26.6797 120.44 27.4544 120.44 29.0039V48.0859C120.44 49.6224 120.987 50.3906 122.08 50.3906ZM140.81 21.7969C145.875 21.7969 148.408 24.401 148.408 29.6094V39.043H139.091V48.0859C139.091 49.6615 139.69 50.4492 140.888 50.4492C141.956 50.4492 142.49 49.8047 142.49 48.5156V40.8008H148.408V48.6328C148.408 50.6901 147.737 52.3242 146.396 53.5352C145.068 54.7461 143.232 55.3516 140.888 55.3516C138.297 55.3516 136.318 54.668 134.951 53.3008C133.597 51.9206 132.92 49.9414 132.92 47.3633V30.1953C132.92 27.4219 133.597 25.332 134.951 23.9258C136.318 22.5065 138.271 21.7969 140.81 21.7969ZM140.849 26.6016C139.677 26.6016 139.091 27.3503 139.091 28.8477V34.6484H142.451V28.8477C142.451 27.3503 141.917 26.6016 140.849 26.6016ZM162.86 21.7969C165.503 21.7969 166.825 23.5156 166.825 26.9531V40.5664H160.985L160.946 28.6328C160.946 27.9948 160.861 27.5326 160.692 27.2461C160.536 26.9466 160.23 26.7969 159.774 26.7969C159.292 26.7969 158.882 27.0247 158.544 27.4805C158.218 27.9362 158.055 28.5872 158.055 29.4336V55H151.981V22.1289H157.372L157.782 25.3516C158.446 24.1797 159.149 23.2943 159.891 22.6953C160.647 22.0964 161.636 21.7969 162.86 21.7969ZM169.93 16.9922H176.004V20.8789H169.93V16.9922ZM169.93 22.1289H176.004V55H169.93V22.1289ZM187.351 21.7969C192.416 21.7969 194.948 24.401 194.948 29.6094V39.043H185.632V48.0859C185.632 49.6615 186.231 50.4492 187.429 50.4492C188.497 50.4492 189.03 49.8047 189.03 48.5156V40.8008H194.948V48.6328C194.948 50.6901 194.278 52.3242 192.937 53.5352C191.609 54.7461 189.773 55.3516 187.429 55.3516C184.838 55.3516 182.859 54.668 181.491 53.3008C180.137 51.9206 179.46 49.9414 179.46 47.3633V30.1953C179.46 27.4219 180.137 25.332 181.491 23.9258C182.859 22.5065 184.812 21.7969 187.351 21.7969ZM187.39 26.6016C186.218 26.6016 185.632 27.3503 185.632 28.8477V34.6484H188.991V28.8477C188.991 27.3503 188.458 26.6016 187.39 26.6016ZM209.635 21.7969C210.911 21.7969 211.92 22.2266 212.662 23.0859C213.418 23.9323 213.795 25.2083 213.795 26.9141V55H207.721V28.3984C207.721 27.3828 207.265 26.875 206.354 26.875C205.872 26.875 205.455 27.0573 205.104 27.4219C204.765 27.7865 204.596 28.3008 204.596 28.9648V55H198.522V22.1289H203.912L204.401 25.3125C204.909 24.3229 205.618 23.4831 206.53 22.793C207.454 22.1029 208.489 21.7708 209.635 21.7969ZM232.603 39.2773V47.832C232.603 50.2799 231.959 52.1484 230.67 53.4375C229.393 54.7135 227.518 55.3516 225.045 55.3516C222.505 55.3516 220.539 54.668 219.146 53.3008C217.766 51.9206 217.076 49.9414 217.076 47.3633V30.3125C217.076 27.4609 217.759 25.332 219.127 23.9258C220.507 22.5065 222.479 21.7969 225.045 21.7969C227.518 21.7969 229.393 22.4284 230.67 23.6914C231.959 24.9414 232.603 26.7643 232.603 29.1602V36.6016H226.646V29.1211C226.646 27.5195 226.099 26.7188 225.005 26.7188C223.834 26.7188 223.248 27.5195 223.248 29.1211V48.0469C223.248 49.6484 223.834 50.4492 225.005 50.4492C226.099 50.4492 226.646 49.6484 226.646 48.0469V39.2773H232.603ZM243.579 21.7969C248.644 21.7969 251.177 24.401 251.177 29.6094V39.043H241.86V48.0859C241.86 49.6615 242.459 50.4492 243.657 50.4492C244.725 50.4492 245.259 49.8047 245.259 48.5156V40.8008H251.177V48.6328C251.177 50.6901 250.506 52.3242 249.165 53.5352C247.837 54.7461 246.001 55.3516 243.657 55.3516C241.066 55.3516 239.087 54.668 237.72 53.3008C236.365 51.9206 235.688 49.9414 235.688 47.3633V30.1953C235.688 27.4219 236.365 25.332 237.72 23.9258C239.087 22.5065 241.04 21.7969 243.579 21.7969ZM243.618 26.6016C242.446 26.6016 241.86 27.3503 241.86 28.8477V34.6484H245.22V28.8477C245.22 27.3503 244.686 26.6016 243.618 26.6016ZM264.672 35.6836C266.404 36.1393 267.68 36.875 268.5 37.8906C269.333 38.8932 269.75 40.2865 269.75 42.0703V48.5156C269.75 50.6771 269.047 52.3568 267.641 53.5547C266.247 54.7526 264.346 55.3516 261.938 55.3516C259.516 55.3516 257.634 54.8242 256.293 53.7695C254.965 52.7018 254.301 51.0872 254.301 48.9258V42.2461H260.219V48.8867C260.219 49.3424 260.375 49.7201 260.688 50.0195C261 50.306 261.404 50.4492 261.898 50.4492C262.432 50.4492 262.849 50.3125 263.148 50.0391C263.461 49.7526 263.617 49.3945 263.617 48.9648V42.793C263.617 41.8294 263.044 41.1523 261.898 40.7617L258.793 39.9609C257.191 39.5312 256.02 38.8281 255.277 37.8516C254.548 36.862 254.184 35.5013 254.184 33.7695V28.4375C254.184 26.4062 254.854 24.7917 256.195 23.5938C257.549 22.3958 259.438 21.7969 261.859 21.7969C264.255 21.7969 266.091 22.3372 267.367 23.418C268.656 24.4987 269.301 25.931 269.301 27.7148V33.5156H263.461V28.3203C263.461 27.7865 263.311 27.3763 263.012 27.0898C262.725 26.7904 262.341 26.6406 261.859 26.6406C261.352 26.6406 260.948 26.7708 260.648 27.0312C260.362 27.2786 260.219 27.6042 260.219 28.0078V33.0859C260.219 33.9714 260.727 34.5703 261.742 34.8828L264.672 35.6836ZM273.05 17.207H279.3V34.082L278.577 45.918H273.773L273.05 34.082V17.207ZM273.128 55V48.2812H279.241V55H273.128Z" fill="#A0E548"/>
</svg>
