<svg width="360" height="76" viewBox="0 0 360 76" fill="none" xmlns="http://www.w3.org/2000/svg">
<path d="M0 16C0 7.16344 7.16344 0 16 0H344.068C352.878 0 360.03 7.12184 360.068 15.9316L360.256 59.9316C360.294 68.7948 353.12 76 344.256 76H16C7.16342 76 0 68.8366 0 60V16Z" fill="#A0E548"/>
<path d="M18.8047 33.9648L19.4492 29.1211L21.1289 17.207H27.8867L21.5977 44.8828V55H15.3672V44.8438L9.03906 17.207H15.9531L17.7109 29.1211L18.3555 33.9648H18.8047ZM30.2687 23.9062C31.649 22.5 33.5891 21.7969 36.0891 21.7969C38.6021 21.7969 40.5357 22.5 41.8898 23.9062C43.257 25.2995 43.9406 27.3438 43.9406 30.0391V47.0703C43.9406 49.7917 43.2505 51.8555 41.8703 53.2617C40.5031 54.6549 38.563 55.3516 36.05 55.3516C33.55 55.3516 31.6164 54.6549 30.2492 53.2617C28.8951 51.8555 28.218 49.7917 28.218 47.0703V30.0391C28.218 27.3438 28.9016 25.2995 30.2687 23.9062ZM37.7492 48.0469L37.7883 29.1211C37.7883 27.5195 37.2284 26.7188 36.1086 26.7188C34.9367 26.7188 34.3508 27.5195 34.3508 29.1211V48.0469C34.3508 49.6484 34.9367 50.4492 36.1086 50.4492C37.2023 50.4492 37.7492 49.6484 37.7492 48.0469ZM56.4789 22.1289H62.5531V55H57.1039L56.6352 51.7969C56.1273 52.7865 55.4112 53.6263 54.4867 54.3164C53.5753 55.0065 52.5596 55.3385 51.4398 55.3125C48.6404 55.3125 47.2406 53.5677 47.2406 50.0781V22.1289H53.3148V48.7109C53.3148 49.7526 53.7706 50.2734 54.682 50.2734C55.1638 50.2734 55.5805 50.0911 55.932 49.7266C56.2966 49.349 56.4789 48.8411 56.4789 48.2031V22.1289ZM77.2398 21.7969C79.8831 21.7969 81.2047 23.5156 81.2047 26.9531V40.5664H75.3648L75.3258 28.6328C75.3258 27.9948 75.2411 27.5326 75.0719 27.2461C74.9156 26.9466 74.6096 26.7969 74.1539 26.7969C73.6721 26.7969 73.262 27.0247 72.9234 27.4805C72.5979 27.9362 72.4352 28.5872 72.4352 29.4336V55H66.3609V22.1289H71.7516L72.1617 25.3516C72.8258 24.1797 73.5289 23.2943 74.2711 22.6953C75.0263 22.0964 76.0159 21.7969 77.2398 21.7969ZM101.555 52.1289C101.177 53.2747 100.624 54.1016 99.8945 54.6094C99.1654 55.1042 98.1693 55.3516 96.9062 55.3516C95.2266 55.3255 93.8724 54.694 92.8438 53.457C91.8281 52.2201 91.3203 50.4297 91.3203 48.0859V25.5273C91.3203 19.7721 94.0807 16.888 99.6016 16.875C102.193 16.875 104.152 17.5 105.48 18.75C106.809 19.987 107.473 21.7643 107.473 24.082V32.3242H101.242V24.2773C101.242 22.806 100.637 22.0703 99.4258 22.0703C98.8919 22.0703 98.4557 22.2721 98.1172 22.6758C97.7917 23.0794 97.6289 23.6133 97.6289 24.2773V48.0078C97.6289 49.4792 98.2409 50.2083 99.4648 50.1953C99.9987 50.1953 100.441 50 100.793 49.6094C101.145 49.2057 101.32 48.6979 101.32 48.0859V39.3164H99.4648V34.6875H107.473V55H102.512L101.906 52.1289H101.555ZM120.695 55L120.226 51.7578C119.236 54.1536 117.57 55.3516 115.226 55.3516C113.872 55.3516 112.745 54.8698 111.847 53.9062C110.948 52.9297 110.499 51.5885 110.499 49.8828V43.2031C110.499 41.3411 110.922 39.8372 111.769 38.6914C112.628 37.5326 113.95 36.6471 115.734 36.0352L120.011 34.6484V28.1641C120.011 27.1484 119.523 26.6406 118.546 26.6406C117.504 26.6406 116.984 27.1615 116.984 28.2031V33.9648H111.183V27.9688C111.183 26.0547 111.795 24.5508 113.019 23.457C114.243 22.3503 116.124 21.7969 118.663 21.7969C121.176 21.7969 123.045 22.3633 124.269 23.4961C125.493 24.6289 126.105 26.3997 126.105 28.8086V55H120.695ZM120.05 39.4727L118.214 40.0781C117.146 40.5078 116.613 41.4128 116.613 42.793V48.8477C116.613 49.8893 117.055 50.4036 117.941 50.3906C118.501 50.3906 118.982 50.1758 119.386 49.7461C119.803 49.3034 120.011 48.6784 120.011 47.8711L120.05 39.4727ZM140.713 26.9141H137.12V47.832C137.12 49.1602 137.679 49.8307 138.799 49.8438H140.83V55H137.159C135.101 55 133.565 54.4857 132.549 53.457C131.534 52.4284 131.026 50.9961 131.026 49.1602V26.9141H128.35V22.1289C129.952 22.1289 131 21.8099 131.495 21.1719C131.989 20.5208 132.367 19.2643 132.627 17.4023H137.198V22.1289H140.713V26.9141ZM150.849 21.7969C155.914 21.7969 158.447 24.401 158.447 29.6094V39.043H149.13V48.0859C149.13 49.6615 149.729 50.4492 150.927 50.4492C151.995 50.4492 152.529 49.8047 152.529 48.5156V40.8008H158.447V48.6328C158.447 50.6901 157.776 52.3242 156.435 53.5352C155.107 54.7461 153.271 55.3516 150.927 55.3516C148.336 55.3516 146.357 54.668 144.99 53.3008C143.636 51.9206 142.959 49.9414 142.959 47.3633V30.1953C142.959 27.4219 143.636 25.332 144.99 23.9258C146.357 22.5065 148.31 21.7969 150.849 21.7969ZM150.888 26.6016C149.716 26.6016 149.13 27.3503 149.13 28.8477V34.6484H152.49V28.8477C152.49 27.3503 151.956 26.6016 150.888 26.6016ZM178.544 43.9648L178.778 39.1211L179.833 22.0703H185.868L182.313 55H175.536L173.915 39.2773L173.505 33.6719H173.075L172.626 39.2773L170.946 55H164.11L160.595 22.0703H166.63L167.743 39.1211L168.016 43.9258H168.427L168.739 39.1211L170.634 22.0703H175.946L177.743 39.1211L178.114 43.9648H178.544ZM197.488 55L197.02 51.7578C196.03 54.1536 194.363 55.3516 192.02 55.3516C190.665 55.3516 189.539 54.8698 188.641 53.9062C187.742 52.9297 187.293 51.5885 187.293 49.8828V43.2031C187.293 41.3411 187.716 39.8372 188.562 38.6914C189.422 37.5326 190.743 36.6471 192.527 36.0352L196.805 34.6484V28.1641C196.805 27.1484 196.316 26.6406 195.34 26.6406C194.298 26.6406 193.777 27.1615 193.777 28.2031V33.9648H187.977V27.9688C187.977 26.0547 188.589 24.5508 189.812 23.457C191.036 22.3503 192.918 21.7969 195.457 21.7969C197.97 21.7969 199.839 22.3633 201.062 23.4961C202.286 24.6289 202.898 26.3997 202.898 28.8086V55H197.488ZM196.844 39.4727L195.008 40.0781C193.94 40.5078 193.406 41.4128 193.406 42.793V48.8477C193.406 49.8893 193.849 50.4036 194.734 50.3906C195.294 50.3906 195.776 50.1758 196.18 49.7461C196.596 49.3034 196.805 48.6784 196.805 47.8711L196.844 39.4727ZM213.874 45.0391L214.421 38.6328L215.476 22.1289H221.784L217.839 52.4805C217.605 53.7565 217.214 54.8633 216.667 55.8008C216.133 56.7383 215.495 57.4544 214.753 57.9492C214.011 58.457 213.249 58.8216 212.468 59.043C211.7 59.2773 210.873 59.3945 209.988 59.3945H205.554V54.3555H207.741C208.705 54.3555 209.363 54.0234 209.714 53.3594L205.261 22.1289H211.55L212.878 38.6328L213.425 45.0391H213.874ZM242.662 26.9141H239.068V47.832C239.068 49.1602 239.628 49.8307 240.748 49.8438H242.779V55H239.107C237.05 55 235.513 54.4857 234.498 53.457C233.482 52.4284 232.974 50.9961 232.974 49.1602V26.9141H230.298V22.1289C231.9 22.1289 232.948 21.8099 233.443 21.1719C233.938 20.5208 234.315 19.2643 234.576 17.4023H239.146V22.1289H242.662V26.9141ZM246.958 23.9062C248.338 22.5 250.278 21.7969 252.778 21.7969C255.291 21.7969 257.225 22.5 258.579 23.9062C259.946 25.2995 260.63 27.3438 260.63 30.0391V47.0703C260.63 49.7917 259.94 51.8555 258.559 53.2617C257.192 54.6549 255.252 55.3516 252.739 55.3516C250.239 55.3516 248.305 54.6549 246.938 53.2617C245.584 51.8555 244.907 49.7917 244.907 47.0703V30.0391C244.907 27.3438 245.591 25.2995 246.958 23.9062ZM254.438 48.0469L254.477 29.1211C254.477 27.5195 253.917 26.7188 252.798 26.7188C251.626 26.7188 251.04 27.5195 251.04 29.1211V48.0469C251.04 49.6484 251.626 50.4492 252.798 50.4492C253.891 50.4492 254.438 49.6484 254.438 48.0469ZM277.698 49.6875H283.695V55H271.448V17.207H277.698V49.6875ZM287.6 23.9062C288.98 22.5 290.92 21.7969 293.42 21.7969C295.933 21.7969 297.867 22.5 299.221 23.9062C300.588 25.2995 301.272 27.3438 301.272 30.0391V47.0703C301.272 49.7917 300.582 51.8555 299.202 53.2617C297.834 54.6549 295.894 55.3516 293.381 55.3516C290.881 55.3516 288.948 54.6549 287.58 53.2617C286.226 51.8555 285.549 49.7917 285.549 47.0703V30.0391C285.549 27.3438 286.233 25.2995 287.6 23.9062ZM295.08 48.0469L295.12 29.1211C295.12 27.5195 294.56 26.7188 293.44 26.7188C292.268 26.7188 291.682 27.5195 291.682 29.1211V48.0469C291.682 49.6484 292.268 50.4492 293.44 50.4492C294.534 50.4492 295.08 49.6484 295.08 48.0469ZM319.923 39.2773V47.832C319.923 50.2799 319.279 52.1484 317.99 53.4375C316.714 54.7135 314.839 55.3516 312.365 55.3516C309.826 55.3516 307.86 54.668 306.466 53.3008C305.086 51.9206 304.396 49.9414 304.396 47.3633V30.3125C304.396 27.4609 305.08 25.332 306.447 23.9258C307.827 22.5065 309.8 21.7969 312.365 21.7969C314.839 21.7969 316.714 22.4284 317.99 23.6914C319.279 24.9414 319.923 26.7643 319.923 29.1602V36.6016H313.966V29.1211C313.966 27.5195 313.42 26.7188 312.326 26.7188C311.154 26.7188 310.568 27.5195 310.568 29.1211V48.0469C310.568 49.6484 311.154 50.4492 312.326 50.4492C313.42 50.4492 313.966 49.6484 313.966 48.0469V39.2773H319.923ZM332.696 55L332.227 51.7578C331.238 54.1536 329.571 55.3516 327.227 55.3516C325.873 55.3516 324.747 54.8698 323.848 53.9062C322.95 52.9297 322.501 51.5885 322.501 49.8828V43.2031C322.501 41.3411 322.924 39.8372 323.77 38.6914C324.63 37.5326 325.951 36.6471 327.735 36.0352L332.013 34.6484V28.1641C332.013 27.1484 331.524 26.6406 330.548 26.6406C329.506 26.6406 328.985 27.1615 328.985 28.2031V33.9648H323.184V27.9688C323.184 26.0547 323.796 24.5508 325.02 23.457C326.244 22.3503 328.126 21.7969 330.665 21.7969C333.178 21.7969 335.046 22.3633 336.27 23.4961C337.494 24.6289 338.106 26.3997 338.106 28.8086V55H332.696ZM332.052 39.4727L330.216 40.0781C329.148 40.5078 328.614 41.4128 328.614 42.793V48.8477C328.614 49.8893 329.057 50.4036 329.942 50.3906C330.502 50.3906 330.984 50.1758 331.388 49.7461C331.804 49.3034 332.013 48.6784 332.013 47.8711L332.052 39.4727ZM341.797 16.9922H347.871V55H341.797V16.9922Z" fill="#237DEA"/>
</svg>
