<svg width="383" height="1303" viewBox="0 0 383 1303" fill="none" xmlns="http://www.w3.org/2000/svg">
<path fill-rule="evenodd" clip-rule="evenodd" d="M3.71698 94.49C6.10289 62.9438 31.904 19.6851 78.8454 7.9727C186.877 -15.3969 344.125 11.5085 344.125 155.262C344.125 238.244 319.489 276.806 296.019 304.872C272.48 332.878 264.67 328.437 253.478 322.073C241.797 315.43 226.432 306.693 185.657 330.562C184.623 331.169 183.593 331.759 182.567 332.331C239.428 340.141 279.859 400.953 315.891 455.15L315.94 455.223C317.286 457.248 318.627 459.265 319.962 461.269C347.864 505.783 382.125 579.491 382.125 603.641C382.125 641.726 352.964 669.72 316.122 674.766C286.96 678.611 258.999 667.137 247.598 641.726C258.999 629.051 269.139 611.21 269.139 589.644C258.608 624.826 243.724 634.019 238.489 637.252C238.057 637.519 237.69 637.745 237.398 637.942C214.596 650.617 181.595 649.356 165.094 645.571C165.094 638.362 155.913 617.457 138.812 608.807C149.553 614.994 160.714 635.359 154.893 649.356C147.333 679.872 128.252 696.392 93.99 696.392C93.275 696.418 92.5654 696.438 91.8613 696.451C169.42 702.54 149.407 767.942 123.57 793.471C149.299 774.409 155.299 749.951 160.659 728.097C167.944 698.4 174.049 673.512 226.881 673.512C330.192 673.512 344.418 780.609 287.573 810.637C268.218 821.321 211.372 836.31 175.226 813.827C211.372 836.31 263.028 844.867 303.082 814.89C350.891 819.194 366.399 867.401 361.209 916.67C357.363 954.141 328.91 987.359 283.726 987.359C256.617 987.359 192.017 960.623 151.963 894.187L151.901 894.188C159.656 916.67 171.318 944.52 199.71 963.813C196.44 976.474 188.123 985.508 176.497 991.721C178.499 991.464 180.51 991.292 182.529 991.21C267.319 985.722 308.603 1087.23 320.93 1119.25C337.838 1151.53 358.816 1220.61 361.638 1233.96C363.63 1267.6 334.733 1300.91 295.83 1302.24C263.719 1303.92 234.636 1289.43 224.364 1263.55C243.784 1236.95 266.346 1217.59 303.162 1212.08C264.391 1210.39 240.697 1229.7 216.649 1257.11C204.642 1269.81 171.144 1278.54 139.742 1263.95C157.095 1224.03 123.163 1190.63 121.4 1188.92C151.235 1237 135.107 1292.21 74.658 1289.57C43.8674 1288.23 13.8196 1268.61 10.6616 1236.93C7.99023 1205.52 68.6078 1042.22 148.715 1000.74C138.125 1002.64 126.519 1003.46 114.473 1003.46C46.0263 1006.65 17.6342 916.67 11.162 873.831C4.68982 833.12 2.12537 769.925 2.12537 763.494C2.12537 727.238 34.1567 696.254 79.1046 695.997C-10.0859 687.515 2.41849 567.998 22.8862 494.309C37.772 442.258 66.2185 379.27 110.272 349.227C98.7397 348.459 89.2387 346.288 82.3965 344.595C-2.10908 323.546 -5.6602 224.211 3.71698 94.49ZM116.41 291.999C110.584 242.884 156.36 203.162 189.208 203.162C192.703 217.194 211.513 263.934 233.819 266.309C205.632 240.564 198.585 204.322 198.585 179.792C198.585 155.262 207.962 110.843 229.102 95.6502C200.915 107.307 190.373 138.909 186.877 157.583C186.155 157.226 184.83 156.747 183.039 156.099L183.037 156.098L183.037 156.098C167.345 150.423 115.967 131.843 122.291 69.9602C101.151 135.373 157.525 163.439 184.491 169.295C183.326 173.936 182.161 180.952 184.491 187.969C155.139 187.969 102.316 233.548 116.41 291.999ZM129.918 574.45C129.366 574.846 128.811 575.245 128.252 575.647L129.495 574.9C185.582 541.218 199.819 532.668 262.839 561.65L262.183 561.299C208.175 532.423 200.519 528.329 176.494 458.746C191.526 530.197 169.496 546.021 129.918 574.45ZM177.23 1165.52C184.209 1162.4 188.86 1160.32 193.412 1160.52C198.613 1160.75 205.342 1165.7 213.902 1172C222.295 1178.17 232.448 1185.64 244.643 1191.22C226.991 1177.23 213.826 1164.44 207.508 1151.96C203.76 1144.55 203.84 1132.65 203.915 1121.63C203.966 1114.08 204.014 1106.94 202.826 1101.95C201.367 1135.44 178.452 1162.9 146.998 1176.77C160.907 1172.8 170.237 1168.64 177.23 1165.52Z" fill="#4BF4AC"/>
</svg>
