<svg width="424" height="1365" viewBox="0 0 424 1365" fill="none" xmlns="http://www.w3.org/2000/svg">
<path fill-rule="evenodd" clip-rule="evenodd" d="M103.535 8.58469C48.952 22.0622 18.9506 71.7766 16.1763 108.141C6.97514 234.104 8.47887 335.168 68.2197 378.212C-0.622234 439.683 -10.9267 556.636 9.05204 645.07C19.8139 686.389 52.4878 713.579 84.3667 725.524C79.6951 728.976 74.3122 733.824 67.938 740.459C56.9052 752.039 45.5499 765.418 36.0011 782.845L35.9366 782.957C26.9684 799.484 19.5488 819.665 15.4841 845.467C15.4841 845.524 15.4841 845.58 15.4195 845.636C13.2259 859.577 12 875.092 12 892.631C12 981.046 78.8318 1026.02 159.43 1042.51C138.211 1047.1 126.975 1041.51 117.726 1036.91C104.714 1030.44 95.6347 1025.93 68.2241 1054.46C57.1914 1066.04 45.8361 1079.42 36.2873 1096.84L36.2227 1096.96C27.2546 1113.48 19.835 1133.67 15.7703 1159.47C15.7703 1159.52 15.7702 1159.58 15.7057 1159.64C13.5121 1173.58 12.2862 1189.09 12.2862 1206.63C12.2862 1352.9 195.197 1380.28 320.751 1356.5C375.334 1344.58 405.336 1300.62 408.11 1268.47C417.354 1156.57 415.793 1066.89 355.232 1029.13C387.789 1010.32 405.71 978.967 407.824 954.467C417.121 841.924 415.489 751.859 353.893 714.484C385.964 699.821 408.12 676.409 417.49 640.344C423.121 618.529 433.042 573.48 400.464 520.3C371.51 472.941 382.098 455.073 390.148 441.488C397.865 428.465 403.25 419.378 369.226 392.017C359.68 384.404 349.108 376.638 336.626 369.424C341.965 365.484 348.273 359.333 356.062 350.164C367.095 337.068 378.45 321.938 387.999 302.23L388.064 302.103C397.032 283.412 404.451 260.589 408.516 231.409C408.516 231.346 408.516 231.282 408.581 231.219C410.774 215.452 412 197.906 412 178.071C412 12.6534 229.089 -18.3068 103.535 8.58469ZM147.148 335.143L147.184 335.164C147.194 335.248 147.204 335.331 147.214 335.415C147.192 335.325 147.17 335.234 147.148 335.143ZM353.388 600.954L353.409 600.918C353.497 600.908 353.586 600.898 353.674 600.888C353.579 600.91 353.483 600.932 353.388 600.954ZM276.816 753.723L276.852 753.741L276.83 753.66L276.786 753.501L276.801 753.612L276.816 753.723ZM277.138 1067.74L277.102 1067.72L277.072 1067.5C277.094 1067.58 277.116 1067.66 277.138 1067.74Z" fill="#72FA93"/>
</svg>
