<svg width="360" height="500" viewBox="0 0 360 500" fill="none" xmlns="http://www.w3.org/2000/svg">
<rect width="360" height="500" rx="24" fill="#A0E548"/>
<path d="M359.996 435.315C359.996 418.717 343.388 368.055 329.834 337.5C310.142 295.592 287.978 245.797 254.762 248.398C217.852 248.398 195.688 311.282 185.857 360.21C175.386 413.473 169.249 501.708 220.324 499.107C236.932 499.107 246.153 487.752 249.846 466.777C252.93 456.29 246.153 440.559 240.626 437.957C249.846 443.201 254.791 458.932 254.791 464.176C262.79 466.777 278.787 467.686 289.869 458.932C291.702 457.198 299.7 451.954 305.256 425.736C305.256 440.6 300.34 452.822 294.785 461.534C300.311 478.999 313.865 486.844 328.001 484.243C345.831 480.733 359.996 461.534 359.996 435.315ZM260.318 335.725C272.01 383.786 275.704 386.387 302.173 406.495C271.399 386.387 264.651 392.539 236.961 416.115C256.653 396.007 267.735 385.561 260.347 335.766L260.318 335.725ZM79.4304 410.83C98.5109 465.002 129.284 486.803 142.198 486.803C163.722 486.803 177.276 459.717 179.109 429.163C181.581 388.988 174.193 349.681 151.419 346.171C132.338 370.614 107.731 363.637 90.5122 345.304C107.731 363.637 134.811 351.415 144.031 342.703C171.11 318.26 164.333 230.891 115.119 230.891C71.4317 230.891 94.817 292.041 65.9053 328.706C78.8196 306.864 88.6798 249.224 44.9923 249.224C23.4685 249.224 8.08192 274.534 8.08192 304.263C8.08192 309.506 9.30355 361.035 12.3867 394.232C15.4698 429.163 28.9949 502.534 61.6005 499.933C81.2919 499.933 98.5109 492.088 102.205 467.603C88.6798 451.872 83.1243 429.163 79.4304 410.83ZM180.33 115.653C180.33 8.21805 97.871 -11.8898 41.2693 5.57554C16.6624 14.3289 3.10818 46.6171 1.88656 70.2346C-3.02901 167.182 -1.19658 241.42 43.1017 257.151C52.9329 260.661 73.2641 266.772 97.2602 246.664C139.115 211.733 129.866 270.24 155.113 227.464C167.416 206.489 180.33 177.669 180.33 115.653ZM120.035 71.1017C108.953 82.4563 104.037 115.653 104.037 133.985C104.037 152.318 107.731 179.404 122.507 198.603C110.814 196.869 100.983 161.938 99.1218 151.451C81.9027 151.451 57.9066 181.138 60.9606 217.844C53.5728 174.16 81.2628 140.096 96.6494 140.096C95.4278 134.852 96.0386 129.609 96.6494 126.14C82.4844 121.764 52.9619 100.83 64.0438 51.9022C60.3498 103.431 94.2062 114.786 97.9001 117.428C99.7326 103.473 105.288 79.855 120.064 71.143L120.035 71.1017ZM225.24 182.046C225.24 182.046 245.542 209.999 236.932 245.797C254.151 257.151 272.01 248.398 278.147 237.043C290.451 212.6 302.754 195.135 323.667 195.135C303.976 201.246 292.283 218.711 282.452 242.287C288.618 264.129 304.616 275.484 321.835 272.841C342.748 270.24 357.524 240.512 355.691 211.692C353.859 200.337 340.915 141.83 331.084 114.745C323.696 87.6587 299.089 2.06595 253.57 9.91092C201.883 16.8888 164.362 196.828 166.805 227.382C169.278 254.468 185.886 270.199 202.494 270.199C235.1 270.199 242.488 222.138 225.269 181.964L225.24 182.046ZM291.702 179.445C278.176 170.692 268.927 155.002 263.401 155.002C258.485 155.002 253.57 162.847 238.794 170.733C255.402 157.644 267.095 133.16 267.095 104.34C268.927 114.827 267.095 136.669 270.789 147.157C274.483 157.644 281.87 168.132 291.702 179.486V179.445Z" fill="#BCF8F0" fill-opacity="0.2"/>
</svg>
